<?xml version="1.0" encoding="utf-8"?>
<svg xmlns="http://www.w3.org/2000/svg" xmlns:xlink="http://www.w3.org/1999/xlink" style="margin: auto; background: rgb(255, 255, 255); display: block; shape-rendering: auto;" width="389px" height="389px" viewBox="0 0 100 100" preserveAspectRatio="xMidYMid">
<g transform="rotate(0 50 50)">
  <rect x="45" y="33.5" rx="5" ry="1.5" width="10" height="3" fill="#85a2b6">
    <animate attributeName="opacity" values="1;0" keyTimes="0;1" dur="0.1811594202898551s" begin="-0.16103059581320453s" repeatCount="indefinite"></animate>
  </rect>
</g><g transform="rotate(40 50 50)">
  <rect x="45" y="33.5" rx="5" ry="1.5" width="10" height="3" fill="#85a2b6">
    <animate attributeName="opacity" values="1;0" keyTimes="0;1" dur="0.1811594202898551s" begin="-0.14090177133655396s" repeatCount="indefinite"></animate>
  </rect>
</g><g transform="rotate(80 50 50)">
  <rect x="45" y="33.5" rx="5" ry="1.5" width="10" height="3" fill="#85a2b6">
    <animate attributeName="opacity" values="1;0" keyTimes="0;1" dur="0.1811594202898551s" begin="-0.1207729468599034s" repeatCount="indefinite"></animate>
  </rect>
</g><g transform="rotate(120 50 50)">
  <rect x="45" y="33.5" rx="5" ry="1.5" width="10" height="3" fill="#85a2b6">
    <animate attributeName="opacity" values="1;0" keyTimes="0;1" dur="0.1811594202898551s" begin="-0.10064412238325283s" repeatCount="indefinite"></animate>
  </rect>
</g><g transform="rotate(160 50 50)">
  <rect x="45" y="33.5" rx="5" ry="1.5" width="10" height="3" fill="#85a2b6">
    <animate attributeName="opacity" values="1;0" keyTimes="0;1" dur="0.1811594202898551s" begin="-0.08051529790660227s" repeatCount="indefinite"></animate>
  </rect>
</g><g transform="rotate(200 50 50)">
  <rect x="45" y="33.5" rx="5" ry="1.5" width="10" height="3" fill="#85a2b6">
    <animate attributeName="opacity" values="1;0" keyTimes="0;1" dur="0.1811594202898551s" begin="-0.0603864734299517s" repeatCount="indefinite"></animate>
  </rect>
</g><g transform="rotate(240 50 50)">
  <rect x="45" y="33.5" rx="5" ry="1.5" width="10" height="3" fill="#85a2b6">
    <animate attributeName="opacity" values="1;0" keyTimes="0;1" dur="0.1811594202898551s" begin="-0.04025764895330113s" repeatCount="indefinite"></animate>
  </rect>
</g><g transform="rotate(280 50 50)">
  <rect x="45" y="33.5" rx="5" ry="1.5" width="10" height="3" fill="#85a2b6">
    <animate attributeName="opacity" values="1;0" keyTimes="0;1" dur="0.1811594202898551s" begin="-0.020128824476650566s" repeatCount="indefinite"></animate>
  </rect>
</g><g transform="rotate(320 50 50)">
  <rect x="45" y="33.5" rx="5" ry="1.5" width="10" height="3" fill="#85a2b6">
    <animate attributeName="opacity" values="1;0" keyTimes="0;1" dur="0.1811594202898551s" begin="0s" repeatCount="indefinite"></animate>
  </rect>
</g>
<!-- [ldio] generated by https://loading.io/ --></svg>